# xmcd
#
# Track frame offsets:
#	150
#	2036
#	16859
#	32727
#	50065
#	63128
#	71978
#	90819
#	105172
#	119550
#	143916
#	154966
#
# Disc length: 2337 seconds
#
# Revision: 1
# Processed by: cddbd v1.5.2PL0 Copyright (c) Steve Scherf et al.
# Submitted via: audiograbber 1.82.02
#
DISCID=96091f0c
DTITLE=Bobby Bare Jr. - The Longest Meow
DYEAR=2006
DGENRE=Alternative
TTITLE0=Bionic Beginning
TTITLE1=The Heart Bionic
TTITLE2=Gun Show
TTITLE3=Back to Blue
TTITLE4=Sticky Chemical
TTITLE5=Uh Wuh Oh
TTITLE6=Demon Valley
TTITLE7=Mayonaise Brain
TTITLE8=Snuggling World Championships
TTITLE9=Borrow Your Cape
TTITLE10=Where is My Mind
TTITLE11=Stop Crying
EXTD=
EXTT0=
EXTT1=
EXTT2=
EXTT3=
EXTT4=
EXTT5=
EXTT6=
EXTT7=
EXTT8=
EXTT9=
EXTT10=
EXTT11=
PLAYORDER=
